<svg xmlns="http://www.w3.org/2000/svg" viewBox="0 0 24 24" width="24" height="24">
  <rect width="24" height="24" rx="5" fill="#07080a"/>
  <defs>
    <radialGradient id="chip" cx="32%" cy="24%" r="85%">
      <stop offset="0" stop-color="#f6f8fb"/>
      <stop offset="0.42" stop-color="#cdd3dd"/>
      <stop offset="0.72" stop-color="#8b93a3"/>
      <stop offset="1" stop-color="#41464f"/>
    </radialGradient>
  </defs>
  <circle cx="12" cy="12" r="10.5" fill="url(#chip)"/>
  <g fill="none" stroke-width="1.15" stroke-linecap="round" transform="translate(3.6 3.6) scale(0.7)">
    <g stroke="#3e7e9e" transform="rotate(0 12 12)">
      <line x1="12" y1="12" x2="12" y2="2.5"/>
      <line x1="12" y1="5.2" x2="9.6" y2="3"/>
      <line x1="12" y1="5.2" x2="14.4" y2="3"/>
      <line x1="12" y1="8.4" x2="10.4" y2="6.8"/>
      <line x1="12" y1="8.4" x2="13.6" y2="6.8"/>
    </g>
    <g stroke="#15181d">
      <g transform="rotate(60 12 12)"><line x1="12" y1="12" x2="12" y2="2.5"/><line x1="12" y1="5.2" x2="9.6" y2="3"/><line x1="12" y1="5.2" x2="14.4" y2="3"/><line x1="12" y1="8.4" x2="10.4" y2="6.8"/><line x1="12" y1="8.4" x2="13.6" y2="6.8"/></g>
      <g transform="rotate(120 12 12)"><line x1="12" y1="12" x2="12" y2="2.5"/><line x1="12" y1="5.2" x2="9.6" y2="3"/><line x1="12" y1="5.2" x2="14.4" y2="3"/><line x1="12" y1="8.4" x2="10.4" y2="6.8"/><line x1="12" y1="8.4" x2="13.6" y2="6.8"/></g>
      <g transform="rotate(180 12 12)"><line x1="12" y1="12" x2="12" y2="2.5"/><line x1="12" y1="5.2" x2="9.6" y2="3"/><line x1="12" y1="5.2" x2="14.4" y2="3"/><line x1="12" y1="8.4" x2="10.4" y2="6.8"/><line x1="12" y1="8.4" x2="13.6" y2="6.8"/></g>
      <g transform="rotate(240 12 12)"><line x1="12" y1="12" x2="12" y2="2.5"/><line x1="12" y1="5.2" x2="9.6" y2="3"/><line x1="12" y1="5.2" x2="14.4" y2="3"/><line x1="12" y1="8.4" x2="10.4" y2="6.8"/><line x1="12" y1="8.4" x2="13.6" y2="6.8"/></g>
      <g transform="rotate(300 12 12)"><line x1="12" y1="12" x2="12" y2="2.5"/><line x1="12" y1="5.2" x2="9.6" y2="3"/><line x1="12" y1="5.2" x2="14.4" y2="3"/><line x1="12" y1="8.4" x2="10.4" y2="6.8"/><line x1="12" y1="8.4" x2="13.6" y2="6.8"/></g>
    </g>
  </g>
</svg>
