<svg xmlns="http://www.w3.org/2000/svg" viewBox="0 0 24 24" width="24" height="24">
  <rect width="24" height="24" rx="5" fill="#07080a"/>
  <defs>
    <linearGradient id="c" x1="3" y1="2" x2="21" y2="22" gradientUnits="userSpaceOnUse">
      <stop offset="0" stop-color="#f5f6fa"/>
      <stop offset="0.55" stop-color="#c0c5d3"/>
      <stop offset="1" stop-color="#8b93a6"/>
    </linearGradient>
  </defs>
  <g fill="none" stroke-width="1.1" stroke-linecap="round" transform="translate(2.4 2.4) scale(0.8)">
    <g stroke="#6fb3d9" transform="rotate(0 12 12)">
      <line x1="12" y1="12" x2="12" y2="2.5"/>
      <line x1="12" y1="5.2" x2="9.6" y2="3"/>
      <line x1="12" y1="5.2" x2="14.4" y2="3"/>
      <line x1="12" y1="8.4" x2="10.4" y2="6.8"/>
      <line x1="12" y1="8.4" x2="13.6" y2="6.8"/>
    </g>
    <g stroke="url(#c)">
      <g transform="rotate(60 12 12)">
        <line x1="12" y1="12" x2="12" y2="2.5"/>
        <line x1="12" y1="5.2" x2="9.6" y2="3"/>
        <line x1="12" y1="5.2" x2="14.4" y2="3"/>
        <line x1="12" y1="8.4" x2="10.4" y2="6.8"/>
        <line x1="12" y1="8.4" x2="13.6" y2="6.8"/>
      </g>
      <g transform="rotate(120 12 12)">
        <line x1="12" y1="12" x2="12" y2="2.5"/>
        <line x1="12" y1="5.2" x2="9.6" y2="3"/>
        <line x1="12" y1="5.2" x2="14.4" y2="3"/>
        <line x1="12" y1="8.4" x2="10.4" y2="6.8"/>
        <line x1="12" y1="8.4" x2="13.6" y2="6.8"/>
      </g>
      <g transform="rotate(180 12 12)">
        <line x1="12" y1="12" x2="12" y2="2.5"/>
        <line x1="12" y1="5.2" x2="9.6" y2="3"/>
        <line x1="12" y1="5.2" x2="14.4" y2="3"/>
        <line x1="12" y1="8.4" x2="10.4" y2="6.8"/>
        <line x1="12" y1="8.4" x2="13.6" y2="6.8"/>
      </g>
      <g transform="rotate(240 12 12)">
        <line x1="12" y1="12" x2="12" y2="2.5"/>
        <line x1="12" y1="5.2" x2="9.6" y2="3"/>
        <line x1="12" y1="5.2" x2="14.4" y2="3"/>
        <line x1="12" y1="8.4" x2="10.4" y2="6.8"/>
        <line x1="12" y1="8.4" x2="13.6" y2="6.8"/>
      </g>
      <g transform="rotate(300 12 12)">
        <line x1="12" y1="12" x2="12" y2="2.5"/>
        <line x1="12" y1="5.2" x2="9.6" y2="3"/>
        <line x1="12" y1="5.2" x2="14.4" y2="3"/>
        <line x1="12" y1="8.4" x2="10.4" y2="6.8"/>
        <line x1="12" y1="8.4" x2="13.6" y2="6.8"/>
      </g>
    </g>
  </g>
</svg>
